<svg width="154" height="59" viewBox="0 0 154 59" fill="none" xmlns="http://www.w3.org/2000/svg">
<g filter="url(#filter0_d_364_3)">
<path d="M20.8268 25.4991C20.8257 25.4988 20.8246 25.4983 20.8235 25.498C20.8204 25.5024 20.8173 25.5067 20.8142 25.5111L20.8268 25.4991Z" fill="#00A86B"/>
<path d="M21.6616 26.357C21.6668 26.3551 21.671 26.3546 21.676 26.353C21.6751 26.3505 21.674 26.3482 21.6733 26.3457L21.6616 26.357Z" fill="#00A86B"/>
<path d="M16.3408 6.4082C16.3404 6.41296 16.3415 6.41747 16.3414 6.42218C16.3462 6.42285 16.3512 6.42331 16.356 6.42405L16.3408 6.4082Z" fill="#00A86B"/>
<path d="M26.7009 28.5028C26.0587 25.9894 24.5528 24.0066 22.5038 22.4292C20.9745 21.2519 19.2792 20.336 17.637 19.338C16.3127 18.5333 15.0083 17.7202 13.9931 16.5158C13.1458 15.5105 12.6862 14.3819 12.6722 13.0542C12.6605 11.954 13.0307 10.963 13.4921 10.0109C13.689 9.6044 14.0572 9.28003 14.4945 9.02038C14.8415 8.81435 15.1968 8.82872 15.5718 8.73022C15.5545 8.2967 15.0069 8.0731 15.2149 7.55811C15.3035 7.43546 15.4311 7.25867 15.5235 7.13072C15.8434 6.94349 16.1663 7.06941 16.4384 6.95216C16.4922 6.74205 16.338 6.59672 16.3413 6.42283C16.0632 6.38419 15.7433 6.45398 15.5412 6.12226C15.7204 6.02337 15.8681 5.90063 16.0363 5.85749C16.4024 5.76356 16.7788 5.71019 17.1539 5.63973C17.2676 5.46488 17.3024 5.30423 17.1448 5.14481C16.1231 4.9931 15.0933 5.00073 14.0863 5.17368C13.2032 5.32534 12.3684 5.65584 11.6245 6.20775C10.5217 7.02605 9.84287 8.14586 9.2767 9.35074C9.16127 9.59636 9.02372 9.79861 8.81804 9.98297C7.91606 10.158 7.27093 10.6894 6.87053 11.5161C6.7242 11.8181 6.51077 11.9887 6.18313 12.0268C5.70537 12.0825 5.33082 12.3527 5.126 12.7464C4.89312 13.194 4.56096 13.5094 4.13034 13.7968C4.2159 14.4592 3.32733 14.8911 3.65616 15.6714C3.76773 15.6294 3.83358 15.6219 3.8743 15.586C3.99468 15.4798 4.07878 15.3409 4.1791 15.2175C4.77527 14.4841 5.48153 14.443 6.17651 15.0994C6.41759 15.3271 6.64149 15.406 6.88592 15.1443C7.09944 14.8614 6.93412 14.564 6.9399 14.2747C7.18026 14.2344 7.20289 14.5667 7.42733 14.5623C7.89182 14.6233 8.14495 14.1887 8.51583 14.042C8.55999 14.1014 8.59686 14.1287 8.6006 14.16C8.61495 14.2794 8.61632 14.4004 8.62668 14.5204C8.71658 15.5631 8.97072 16.5636 9.40784 17.5155C9.96375 18.726 10.817 19.7091 11.8408 20.5321C12.2549 20.865 12.6757 21.2261 13.1988 21.4072C13.2068 21.4656 13.2004 21.5478 13.2322 21.5671C13.5671 21.7706 13.8816 22.0022 14.2453 22.1657C15.0552 22.5296 15.9386 22.7 16.7156 23.1604C16.9926 23.3245 17.2925 23.5824 17.6793 23.4713C17.7053 23.6756 17.8946 23.7267 18.0334 23.8117C18.6177 24.1694 19.1946 24.5443 19.8045 24.8529C20.1695 25.0375 20.4084 25.4055 20.8227 25.4993C21.0061 25.2414 21.1899 24.9832 21.3956 24.694C21.2752 24.4734 21.5802 24.1272 21.1536 23.9303C20.9894 24.1385 21.1132 24.3813 20.9926 24.6328C20.9215 24.7175 20.8078 24.8529 20.6498 25.0411C19.8756 24.7427 19.2898 24.1074 18.485 23.7776C18.6694 23.484 18.9756 23.3921 19.0962 23.0966C19.1298 22.8098 18.9584 22.4944 19.1212 22.1192C20.6453 22.8882 21.8688 24.0231 22.9792 25.3314C22.9119 25.6108 22.8083 25.8727 22.8375 26.1695C22.6462 26.3612 22.5548 26.6469 22.3211 26.7375C21.9825 26.7416 22.0254 26.2387 21.6755 26.3541C21.8053 26.7543 22.0623 27.0589 22.3937 27.3077C22.5232 27.1076 22.7318 26.9835 22.8827 26.8091C23.0234 26.6467 23.0692 26.4124 23.162 26.3209C23.3053 26.0346 23.1023 25.8604 23.1644 25.5599C23.8871 26.2476 24.3099 27.0716 24.8359 27.8108C24.6641 28.3934 24.3424 28.82 23.8318 29.1444C23.675 29.0137 23.512 28.8033 23.2427 28.7765C23.143 29.0826 23.3624 29.2962 23.4574 29.4815C23.6144 31.8169 23.1977 33.9115 21.4964 35.5755C19.6644 37.3673 17.4349 37.7244 14.9959 37.3268C14.5245 37.0443 14.0416 36.7663 13.5218 36.5473C13.0492 36.3481 12.5464 36.194 12.1773 35.7905C11.8109 35.3901 11.3816 35.0442 11.0374 34.6269C10.1222 33.5174 9.46267 32.2955 9.60534 30.7892C9.6408 30.415 9.65345 30.0091 10.017 29.7469C10.0639 29.8006 10.0798 29.8131 10.0881 29.8294C10.1499 29.9491 10.0871 30.064 10.0746 30.1816C9.90573 31.7736 10.2834 33.2141 11.3268 34.4412C12.1221 35.3764 13.1317 36.0406 14.2558 36.5131C14.8408 36.759 15.4419 36.9798 16.1108 36.921C16.6506 36.8735 17.2215 36.9947 17.7347 36.866C18.9711 36.5561 20.0849 35.9807 20.9989 35.0532C22.0318 34.0051 22.8071 32.8171 23.1621 31.3723C23.2283 31.1027 23.2892 30.8738 22.9551 30.7255C22.6667 31.2418 22.3029 31.6595 21.8167 31.9657C21.5991 32.1027 21.5184 32.2863 21.7101 32.5089C21.7831 32.5935 21.8049 32.681 21.7615 32.8163C21.5271 33.0628 21.2179 33.2212 20.8687 33.3422C20.2698 33.5499 19.6498 33.5768 19.0306 33.6264C18.7733 33.647 18.5027 33.6247 18.3334 33.9342C18.7722 34.1441 19.3457 34.0003 19.6883 34.4462C19.4686 34.6826 19.2192 34.7685 18.9217 34.7677C18.4985 34.7664 18.0755 34.7831 17.6725 34.6201C17.4889 34.5458 17.3215 34.532 17.2281 34.6978C17.1216 35.0055 17.4993 35.1337 17.3789 35.4808C16.8479 36.0298 16.1991 35.248 15.659 35.5876C15.0425 34.9326 14.8443 34.0914 14.2859 33.4921C13.8309 33.8829 14.4699 34.268 14.2072 34.6602C13.9758 34.5781 13.7839 34.4924 13.6929 34.2215C13.5229 33.7149 13.3129 33.2218 13.1275 32.7201C13.0524 32.5168 12.9443 32.4764 12.8016 32.5819C12.6893 33.081 13.2697 33.4463 13.0109 33.9833C12.725 33.9118 12.6018 33.6966 12.4711 33.5615C12.0911 32.693 12.1613 31.7681 11.87 30.9241C11.4871 31.0023 11.5459 31.3088 11.5219 31.5839C11.5018 31.8158 11.6197 32.1115 11.2758 32.2596C10.985 31.9487 11.0954 31.5545 10.9829 31.225C10.7695 30.6004 10.9951 30.0057 11.2913 29.4943C11.8401 28.5465 12.769 28.1168 13.8149 27.9218C14.8476 27.7292 15.8419 27.8852 16.8347 28.2043C18.4112 28.711 19.846 29.4107 20.8403 30.8077C20.9321 30.9367 21.0649 31.0756 21.2967 31.07C21.2889 30.3474 20.8249 29.8531 20.5208 29.3244C20.6579 29.1063 20.9352 29.2487 21.066 29.0391C20.5143 28.2233 19.4881 28.4882 18.8186 27.9874C18.7848 27.8631 18.8969 27.7124 18.7537 27.5905C18.3514 27.3629 17.7212 27.7591 17.434 27.1562C17.6876 26.6796 18.2832 26.9976 18.5818 26.6611C18.5313 26.52 18.4378 26.4955 18.333 26.4903C17.466 26.4468 16.6095 26.5403 15.7583 26.6933C15.5325 26.734 15.2943 26.8922 15.1003 26.5597C15.375 25.9161 16.1845 25.7589 16.5473 25.1171C16.1426 25.0069 15.8827 25.2211 15.6144 25.3559C14.7519 25.7894 13.9961 26.3907 13.197 26.9242C12.9761 27.0716 12.7668 27.3033 12.3966 27.1273C12.3993 26.6333 12.963 26.378 12.9766 25.8829C12.5963 25.983 12.4768 26.0573 12.2889 26.3929C12.0256 26.8632 11.805 27.3584 11.5245 27.8175C11.3294 28.1367 11.2406 28.5514 10.8666 28.7373C10.729 28.5469 10.9512 28.2574 10.6329 28.1565C10.4054 28.5985 10.2325 29.0385 10.1885 29.5111C9.97176 29.5284 9.84192 29.317 9.59908 29.4202C7.58156 31.3201 7.59334 33.564 8.61975 35.977C8.71436 36.002 8.80541 36.0261 8.89647 36.0501C8.84494 36.2953 8.94856 36.511 9.0174 36.7421C9.12984 36.7859 9.23652 36.8274 9.34309 36.8689C9.36645 37.4931 9.59148 38.0239 10.0414 38.4682C10.1799 38.6049 10.2558 38.8041 10.3652 38.9716C10.5602 39.2699 10.5943 39.5669 10.3645 39.8627C10.1967 40.0789 10.1641 40.288 10.3526 40.4876C10.646 40.5853 11.0473 40.248 11.1913 40.7608C11.0063 41.1352 10.4729 41.3191 10.5696 41.8995C10.6278 42.0383 10.722 42.2127 10.8423 42.3229C11.4121 42.6242 11.6506 41.9353 12.1092 41.9422C12.2824 42.1113 12.2917 42.3701 12.5264 42.5198C12.6589 42.5962 12.8855 42.569 13.0117 42.7088C13.2734 43.126 12.6995 43.2835 12.7517 43.6277C13.0333 43.7676 13.2157 43.6539 13.3877 43.4502C13.8422 42.9117 13.7725 42.3159 13.604 41.7056C13.9559 42.0128 14.0613 42.5444 14.49 42.6769C14.7407 43.0175 14.3218 43.2789 14.4905 43.5711C15.2871 43.2734 15.1554 43.0527 14.923 41.8199C14.6995 41.5725 14.505 41.273 14.3477 40.9696C13.9224 40.9894 13.9224 40.9894 13.5111 41.3159C13.4212 41.1637 13.3325 41.0136 13.2711 40.9099C13.059 40.7685 12.8601 40.8929 12.6932 40.7965C12.2822 40.5532 12.3023 40.0686 12.107 39.7061C11.9176 39.3546 11.3945 39.2227 11.4574 38.6423C11.8693 39.1933 12.3885 39.536 12.8952 39.8872C13.3784 40.2222 13.9206 40.5016 14.5189 40.4121C14.8768 40.3585 15.2174 40.3729 15.5238 40.4835C15.9457 40.6359 16.3699 40.7175 16.8082 40.7687C18.0944 40.919 19.3454 40.8159 20.5402 40.2738C20.629 40.2335 20.738 40.2484 20.8241 40.3183C21.2119 41.7127 21.2119 41.7127 20.9998 42.2329C20.4729 42.3289 20.3415 42.876 19.9938 43.1916C19.6176 43.5333 19.0109 43.4369 18.7494 43.8847C18.8238 44.1561 19.1615 44.0244 19.2028 44.2974C18.6795 44.7397 18.0447 44.6499 17.429 44.681C16.8154 44.7121 16.1944 44.5628 15.5541 44.7241C15.7819 45.4382 16.681 45.0171 16.9511 45.604C16.9019 45.6627 16.8709 45.738 16.8259 45.7476C16.0806 45.9077 15.3382 46.0396 14.5878 45.7432C14.2103 45.5941 13.8407 45.3682 13.4115 45.4455C13.3222 45.6765 13.6412 45.7562 13.4991 46.0504C13.3362 46.278 13.0103 46.297 12.6913 46.2442C11.9985 46.1295 11.321 45.9522 10.6668 45.686C10.1472 45.4745 9.62294 45.2605 9.04108 45.3039C8.88059 45.3159 8.7043 45.3064 8.7168 45.5393C8.80523 45.7558 9.12331 45.6493 9.18135 45.9099C9.11621 46.2217 8.85986 46.137 8.65593 46.1203C7.36821 46.0145 6.08749 45.9749 4.82162 46.3242C4.561 46.3961 4.28347 46.3955 4.06163 46.6318C4.32594 46.8465 4.76617 46.7268 4.95159 47.1601C4.36312 47.5264 4.02687 48.1914 3.35608 48.4726C2.72879 48.7356 2.40478 49.302 2.0166 49.8036C1.98755 49.8411 2.00601 49.9155 2.00345 49.9559C2.12298 50.106 2.34107 49.9736 2.4388 50.1475C2.4609 50.4917 2.06365 50.711 2.13039 51.0835C2.3248 51.0584 2.43818 50.8188 2.72754 51.0158C2.78291 52.2513 2.98028 53.5282 3.68683 54.661C3.98791 54.5354 3.80435 54.1935 4.06381 54.0848C4.58903 54.3769 5.00201 54.9058 5.60848 55.0011C5.84916 54.7743 5.45035 54.6493 5.64526 54.4551C6.16433 54.3599 6.56365 54.8602 7.12807 54.7531C7.64763 54.6544 8.09789 54.4368 8.58581 54.265C8.21008 54.0642 7.8296 54.1393 7.4619 54.1397C6.51624 54.1408 5.63679 53.882 4.82883 53.4278C4.15832 53.0509 3.80699 52.4653 3.61686 51.6672C3.41818 50.833 3.59334 50.1405 3.99133 49.4987C4.39358 48.8501 4.98432 48.3334 5.70239 48.0217C6.81506 47.5388 7.95829 47.2043 9.19861 47.2337C10.0077 47.2529 10.7979 47.3939 11.598 47.4647C13.0406 47.5923 14.4788 47.7257 15.9227 47.4289C17.2786 47.1501 18.4523 46.5683 19.4257 45.5732C19.8109 45.1794 20.101 44.7226 20.3652 44.2551C20.6262 43.7932 20.8024 43.2834 21.0314 42.7588C21.0525 43.1593 21.1246 43.5248 20.9657 43.8687C20.5004 44.8759 19.9019 45.7574 18.9869 46.4475C17.9092 47.2604 16.7291 47.7272 15.4087 47.8812C14.1385 48.0293 12.882 47.8593 11.6238 47.7045C10.3282 47.5451 9.03479 47.3591 7.72179 47.6008C7.36238 47.667 7.02907 47.7981 6.6771 47.8774C5.64186 48.1107 4.77307 48.6464 4.17932 49.5304C3.57551 50.4294 3.5059 51.4465 4.19191 52.2736C5.14185 53.4188 6.45775 53.873 7.8731 53.8414C8.57758 53.8257 9.35214 53.7539 10.0239 53.4048C10.2722 53.2758 10.6615 53.2538 10.618 52.8077C10.3569 52.7383 10.148 52.7955 9.9535 52.9073C9.58116 53.1214 9.15633 53.2164 8.75382 53.2685C7.54546 53.4251 6.39507 53.2129 5.37393 52.4961C4.67783 52.0075 4.49218 50.8992 5.00201 50.3013C5.30485 49.9462 5.62631 49.6336 6.05466 49.4265C6.64193 49.1426 7.86487 48.8256 8.29786 48.8788C8.2386 48.9506 8.15527 48.922 8.08072 48.9312C8.01047 48.94 7.9203 48.9164 7.90679 49.0396C9.51846 49.0843 11.0663 49.4735 12.6101 49.8918C12.9175 49.9752 13.247 50.0586 13.5567 50.0315C13.9695 49.9954 14.3538 50.0667 14.7374 50.1113C15.9936 50.1595 17.1743 49.782 18.4654 49.4487C18.7269 49.315 19.0536 49.0844 19.4351 48.9206C19.9863 48.6839 20.5106 48.3442 20.9302 47.906C21.4632 47.3494 21.9945 46.7945 22.4491 46.1576C23.4721 44.7242 23.825 43.0972 23.9178 41.4017C23.9636 40.5652 23.8003 39.7222 23.6673 38.8889C23.6512 38.7879 23.6488 38.6894 23.7775 38.6678C24.1304 39.1179 24.0663 39.6645 24.1366 40.1764C24.235 40.8927 24.3049 41.6214 24.219 42.3356C24.1035 43.295 23.7769 44.2024 23.2855 45.0426C23.1733 45.2345 23.0479 45.4224 23.1706 45.6596C23.3826 45.6734 23.5464 45.5265 23.6172 45.3927C23.9154 44.8285 24.3319 44.3214 24.5171 43.7042C24.815 42.7115 24.9897 41.6894 25.18 40.6979C25.1186 40.4015 24.8418 40.1448 25.1263 39.8336C25.5159 39.9619 25.6474 40.3228 25.872 40.6022C25.8968 39.4699 25.0473 38.7673 24.5595 37.873C24.7012 37.7134 24.8427 37.5459 24.9927 37.3864C25.6534 36.6834 25.8752 35.7425 26.3204 34.9229C26.6854 34.2512 26.7222 33.4742 26.9011 32.7417C27.2538 31.2966 27.0508 29.8723 26.7009 28.5028ZM8.27124 11.1171C8.3936 10.8236 8.67707 10.9142 8.91057 10.8887C8.75802 11.1188 8.51574 11.1208 8.27124 11.1171ZM15.1754 7.02116C14.7946 7.53118 14.7607 7.97052 15.1398 8.44747C14.6592 8.52199 14.2693 8.72669 13.8607 8.96022C13.6674 8.8555 13.4987 8.68003 13.2908 8.66771C13.0899 8.38757 13.1349 8.09696 13.0865 7.75332C13.5835 7.14486 14.3085 7.08779 15.1754 7.02116ZM12.7924 7.79671C12.7933 8.12182 12.7719 8.41295 12.8744 8.72084C13.0057 8.95519 13.2577 9.06205 13.5699 9.16893C13.1746 9.60717 12.8292 9.99006 12.4848 10.3719C12.1915 10.2363 11.9106 10.281 11.593 10.2775C11.4538 10.0437 11.0991 9.99508 10.9895 9.59717C11.238 8.6988 12.0916 8.33545 12.7924 7.79671ZM10.7279 9.77378C10.8717 10.1568 11.1586 10.3984 11.4592 10.6655H12.3446C12.0079 11.2442 11.9118 11.8302 11.5424 12.3336C11.181 12.338 10.8061 12.3961 10.3683 12.3085C10.2244 12.1338 10.049 11.9208 9.83037 11.6554C9.97307 11.0092 10.3113 10.3823 10.7279 9.77378ZM9.62036 12.0644C10.1129 12.8365 10.7411 12.8696 11.4559 12.6735C11.5112 13.2141 11.2198 13.708 11.4991 14.1585C11.1646 14.6642 10.7345 14.9651 10.2571 15.2124C9.97889 15.0994 9.80002 14.8234 9.47486 14.9223C9.15639 13.9567 9.57036 13.0987 9.62036 12.0644ZM9.45149 15.219C9.69076 15.3791 9.82002 15.4655 9.98259 15.5743H10.5108C10.8071 15.3687 11.1265 15.147 11.4622 14.914C11.5931 15.7137 11.8987 16.4132 12.0777 17.141C11.8148 17.4613 11.5718 17.7737 11.1941 17.9865C11.0054 18.0182 10.7828 17.9713 10.5954 18.0624C9.83335 17.2922 9.70015 16.3151 9.45149 15.219ZM13.2183 21.3973C13.2581 21.2718 13.2329 21.1716 13.0873 21.137C12.9047 21.0935 12.8412 20.9546 12.7459 20.7497C13.5891 20.8769 13.8613 20.3077 14.1321 19.7151C13.9344 19.564 13.7137 19.6955 13.6638 19.8035C13.4108 20.3513 12.906 20.3891 12.408 20.4895C12.3337 20.4949 12.2723 20.4451 12.2227 20.3801C11.7142 19.7142 11.01 19.2018 10.669 18.4045C11.0699 18.3499 11.5093 18.4573 11.8295 18.0779C11.9968 17.8798 12.2516 17.743 12.169 17.3757C12.792 18.0654 13.2697 18.8196 13.8409 19.3602C14.6755 19.8329 15.4298 20.2601 16.1844 20.6874C16.1631 21.003 16.1458 21.2595 16.1287 21.5143C15.7852 21.9795 15.3194 22.1573 14.7591 22.1563C14.2638 21.883 13.8605 21.3946 13.2183 21.3973ZM18.7307 22.9738C18.6422 23.1735 18.3482 23.1842 18.3231 23.4504H17.6908C17.6677 23.3004 17.5699 23.2276 17.4257 23.1851C16.8911 23.0276 16.4325 22.6771 15.8748 22.5723C15.8092 22.56 15.7581 22.47 15.6468 22.3662C15.9894 22.2418 16.2841 22.0898 16.4579 21.8023C16.6391 21.5026 16.5168 21.1953 16.4422 20.844C17.1879 21.279 18.0374 21.4583 18.7307 21.9814V22.9738H18.7307ZM8.33508 32.3665C8.43873 32.7335 8.55368 33.0997 8.37574 33.4839C8.1051 33.1273 8.318 32.7409 8.33508 32.3665ZM8.8997 36.035C8.60933 35.5928 8.58903 35.0459 8.33461 34.5807C8.22332 34.3773 8.17911 34.0246 8.55332 33.8268C8.8794 34.2574 8.9544 34.8051 9.25069 35.2436C9.09979 35.5206 8.96319 35.7635 8.8997 36.035ZM9.35516 36.8467C9.38206 36.4511 9.2367 36.054 9.35917 35.6593C9.52187 35.746 9.60597 35.8936 9.68743 36.0723C9.52096 36.3065 9.53789 36.6165 9.35516 36.8467ZM14.3556 37.8147C14.6566 37.9446 14.9567 38.0766 15.2592 38.203C15.4478 38.2819 15.6223 38.3696 15.6624 38.5993C15.2798 38.655 14.6227 38.256 14.3556 37.8147ZM16.5587 40.4994C16.1685 40.5002 15.8475 40.2864 15.4223 40.1898C15.8054 39.9601 16.1301 39.7481 16.3843 39.4302C16.5015 39.648 16.3797 39.8251 16.4128 40.0028C16.4452 40.1773 16.5058 40.2962 16.6997 40.2525C16.6547 40.3313 16.6093 40.4107 16.5587 40.4994ZM20.2773 40.1593C19.8717 40.1471 19.5164 40.021 19.1852 39.8399C19.0546 39.7106 19.0921 39.5338 19.0392 39.3818C18.8999 39.2696 18.7482 39.2024 18.4916 39.2123C18.7643 39.6772 18.819 40.2202 19.5088 40.3131C18.6669 40.5821 17.6964 40.5433 16.73 40.2361C16.8326 39.9427 16.7507 39.6546 16.6589 39.3073C18.057 39.1534 19.4306 38.9967 20.6945 38.2803C20.9081 38.8773 21.4008 39.0929 21.9288 39.2446C22.0866 39.29 22.2281 39.3171 22.2709 39.493C22.123 39.465 21.9759 39.3681 21.8254 39.4632C21.3364 39.7721 20.7648 39.8949 20.2773 40.1593ZM10.7214 48.9033C10.1671 49.1494 9.65584 48.8393 9.13689 48.9356C9.56104 48.6624 11.6465 48.7564 12.7653 49.0567C12.9249 49.2306 12.8003 49.5661 13.1121 49.7157C12.2692 49.5329 11.4525 49.399 10.7214 48.9033ZM15.0727 49.797C14.6719 49.8177 14.2752 49.7819 13.8328 49.7766C13.7457 49.5025 13.2402 49.5887 13.2669 49.1213H14.9279C15.1914 49.1746 15.0996 49.3755 15.19 49.4728C15.2774 49.5677 15.397 49.545 15.5061 49.5614C15.4 49.7066 15.277 49.7864 15.0727 49.797ZM15.5279 49.5556C15.5435 49.4244 15.4725 49.2829 15.6097 49.1067C16.1453 49.121 16.7035 48.9869 17.164 48.8191C17.5021 48.8834 17.6029 49.0904 17.8367 49.333C17.0132 49.4565 16.3238 49.9167 15.5279 49.5556ZM18.5392 48.9938C18.2051 49.1041 17.9203 49.0403 17.6939 48.6612C18.3417 48.3786 18.8807 48.039 19.3543 47.5974C19.6823 47.7084 19.8167 48.0878 20.208 48.0416C19.6388 48.4029 19.1419 48.7947 18.5392 48.9938ZM20.6662 47.6137C20.2474 47.9021 19.9916 47.5275 19.6495 47.3886C20.0261 46.899 20.3772 46.4427 20.7458 45.9636C21.0802 46.3839 21.4878 46.2503 21.8884 46.1661C21.6773 46.8131 21.2051 47.2425 20.6662 47.6137ZM21.9072 46.1289C21.9016 46.0626 21.896 45.9972 21.8914 45.9424C21.5724 45.7256 21.1834 46.0305 20.8509 45.7097C20.992 45.126 21.307 44.5681 21.3533 43.9667C21.8698 43.8689 22.3314 44.0501 22.7956 43.6995C22.7041 44.6376 22.3897 45.4126 21.9072 46.1289ZM22.8038 43.3017C22.3647 43.607 21.9199 43.6063 21.4357 43.5134C21.2091 42.7935 21.5035 42.0938 21.3296 41.4135C21.7125 41.2504 22.1721 41.4059 22.3941 40.9545C22.4167 40.8595 22.4093 40.7459 22.2899 40.6513C22.0183 40.6142 21.9026 40.8948 21.6835 40.9718C21.5113 40.9967 21.371 40.9247 21.2222 40.8117C21.1337 40.6905 21.1394 40.5312 21.1341 40.3805C21.2106 40.226 21.3025 40.122 21.4701 40.0534C21.7723 39.9296 22.1562 39.9055 22.2839 39.5174C22.6709 39.8244 22.4908 40.2425 22.5059 40.6369C22.9207 41.4724 22.7706 42.3773 22.8038 43.3017ZM24.0417 37.9118C23.4609 38.3545 23.1112 39.0761 22.3235 38.9747C21.8147 38.9092 21.3057 38.7315 21.0063 38.1818C21.5836 37.7196 22.2191 37.3447 22.78 36.6709C22.8464 37.3504 23.3173 37.466 23.6098 37.6734C23.9035 37.7779 24.2465 37.5291 24.3779 37.918C24.2454 38.1064 24.1021 37.8236 24.0417 37.9118ZM26.1417 33.6793C26.0756 33.9405 25.899 33.9661 25.8167 34.1408C26.0484 34.7764 25.8204 35.3895 25.5252 35.9827C25.2404 36.5548 24.8869 37.0772 24.2585 37.4169C24.095 37.1976 23.8557 37.3694 23.6828 37.3406C23.3163 37.1264 23.1951 36.7796 22.9846 36.435C23.409 35.8461 23.6777 35.2093 23.9014 34.5838C24.1788 34.5682 24.2016 34.8513 24.308 34.8566C24.719 34.9125 25.0381 34.9391 25.3642 34.8588C25.5197 34.7466 25.6828 34.6361 25.7839 34.477C25.7461 34.2566 25.5829 34.216 25.4685 34.3001C24.9765 34.6619 24.519 34.5731 24.0185 34.2221C24.0461 33.5142 24.1925 32.7889 24.1248 31.9846C24.7221 32.0961 25.2731 32.2185 25.6722 31.7059C25.7377 31.6217 25.7312 31.6167 25.6061 31.2379C25.2435 31.4801 24.908 31.8001 24.4175 31.6759C24.1838 31.589 24.0026 31.4241 24.0187 31.1525C24.0529 30.5765 23.7785 30.0789 23.6216 29.5039C24.3533 29.4164 24.7799 28.9565 25.0908 28.1905C25.3406 29.2389 25.9323 30.0527 25.8146 31.1113C26.3751 31.91 26.0643 32.872 26.1417 33.6793Z" fill="#00A86B"/>
<path d="M11.8634 30.9043C11.8658 30.911 11.8677 30.9179 11.87 30.9246C11.872 30.9242 11.8736 30.9236 11.8757 30.9232L11.8634 30.9043Z" fill="#00A86B"/>
<path d="M23.2305 28.7739C23.2349 28.7742 23.2388 28.7755 23.2431 28.776C23.2445 28.7718 23.2453 28.7679 23.2467 28.7637L23.2305 28.7739Z" fill="#00A86B"/>
<path d="M22.3957 27.3079C22.3951 27.3075 22.3946 27.3071 22.3941 27.3066C22.3903 27.3124 22.386 27.3177 22.3823 27.3236L22.3957 27.3079Z" fill="#00A86B"/>
<path d="M26.301 11.4991C25.7699 11.6213 26.0207 12.2585 25.6514 12.4851C25.2962 12.7029 25.048 13.0441 24.7781 13.3642C24.4641 13.0882 24.7641 12.7461 24.6191 12.5112C24.5264 12.2958 24.3148 12.2003 24.2645 11.9759C24.2679 11.7274 24.5186 11.5213 24.4147 11.17C24.2952 10.9782 24.1371 10.7248 23.9754 10.4654C24.2126 9.99001 24.2908 9.47767 24.2368 8.98678C24.1646 8.33062 24.38 7.78023 24.6096 7.19758C24.924 6.3997 25.2089 5.59548 25.3187 4.72238C25.4037 4.04604 25.3004 3.39725 25.2568 2.74252C25.2314 2.36122 25.0452 1.97219 24.7698 1.64219C24.5316 2.45102 24.8677 3.25026 24.7141 4.06815C24.5612 4.88225 24.4163 5.69385 24.0821 6.44185C23.7543 7.17541 23.5005 7.97608 22.8228 8.54274C22.6673 8.25653 22.5906 7.91927 22.2105 7.9851C22.0518 8.06037 22.126 8.27597 21.9113 8.32476C22.021 7.82878 21.8728 7.34063 21.9205 6.78804C22.4614 7.11315 22.4824 7.81644 23.0582 7.97649C23.2178 7.74341 23.2361 7.50841 23.2379 7.26243C23.248 5.9018 23.3438 4.53843 22.9632 3.20071C22.8759 2.89401 22.7065 2.70226 22.4495 2.46064C22.5122 3.6173 22.9794 4.65946 22.7809 5.7713C22.5319 5.72363 22.4922 5.58001 22.4606 5.44461C22.3698 5.05411 22.3125 4.65438 22.1995 4.2708C22.065 3.81448 21.9758 3.31122 21.3438 3.03264C21.4302 3.63705 21.6458 4.14124 21.5353 4.83106C21.3108 4.41908 21.1155 4.57004 20.905 4.79398C19.8974 3.66692 19.5058 2.08511 18.0557 1.39609C18.4234 2.13842 19.157 2.67006 19.3442 3.50433C19.1043 3.68609 18.9555 3.58008 18.8088 3.46659C18.5389 3.25793 18.266 3.05299 18.0008 2.8385C17.222 2.20855 16.4213 1.6115 15.5458 1.11858C15.2837 0.971027 15.0439 0.93892 14.6426 1.15158C15.2138 1.47458 15.7276 1.71198 16.0554 2.15848C16.3807 2.60174 16.6655 3.07476 16.9863 3.56239C16.5249 3.73632 16.1933 3.59751 15.8796 3.41527C15.171 3.00361 14.4794 2.56177 13.7618 2.16709C13.4109 1.97413 13.0148 1.87185 12.5612 1.88172C12.6212 2.19288 12.7733 2.3465 13.0002 2.39787C13.4555 2.50095 13.6959 2.83345 13.9372 3.17494C13.8857 3.41759 13.774 3.57506 13.5443 3.6C13.1232 3.64572 12.6965 3.66997 12.2959 3.50023C11.1328 3.00744 9.94339 2.59764 8.7045 2.34352C8.44463 2.29022 8.15655 2.20152 7.91226 2.5751C9.11292 2.97837 10.3637 3.1727 11.3316 4.03368C11.1378 4.21114 10.9052 4.06269 10.7746 4.26431C10.7107 4.39736 10.914 4.55634 10.7287 4.74202C10.5629 4.80372 10.3407 4.81178 10.1262 4.76434C9.21164 4.56207 8.32591 4.82301 7.43132 4.92513C7.27396 4.94309 7.04279 4.97703 7.14424 5.3036C7.96485 5.30331 8.82951 5.2047 9.55475 5.74836C9.45539 6.162 9.16809 6.28766 8.8943 6.39119C7.78608 6.81027 7.02363 7.67672 6.18541 8.44667C6.08758 8.53652 6.04736 8.63905 6.12385 8.81482C6.48694 8.88909 6.61881 8.43026 6.8908 8.4055C7.22411 8.37516 7.47068 8.01232 7.84292 8.16725C7.69022 8.6878 7.45983 9.12398 7.07938 9.50505C6.81838 9.76646 6.66368 10.1371 6.47662 10.4675C6.40839 10.5881 6.41476 10.7256 6.58475 10.8882C7.05553 10.1852 7.67305 9.78507 8.42059 9.80685C8.73123 9.61752 8.83005 9.36939 8.95456 9.1405C9.56493 8.01832 10.3572 7.03184 11.2946 6.17576C12.4901 5.08404 14.0263 4.90582 15.5428 4.75526C16.2713 4.68295 17.0148 4.70742 17.701 4.86826C17.9236 4.64088 17.7898 4.43597 17.8065 4.24745C17.8808 4.21691 17.9555 4.22479 18.0688 4.28067C17.9418 4.56346 18.1377 4.77198 18.2762 5.00264C18.4552 5.30098 18.7756 5.52577 18.766 5.92348C18.6201 5.93689 18.5019 5.88533 18.4205 5.76059C18.2597 5.51405 18.1001 5.63552 17.9799 5.69741C17.8138 6.04386 18.2546 6.10882 18.1578 6.44964C17.6314 6.17623 17.0778 6.00744 16.4757 6.01742C16.4332 6.16097 16.3959 6.28717 16.3587 6.41303C16.9136 6.53879 17.6217 7.01106 17.8817 7.44696C17.4619 7.52172 17.0897 7.71231 16.6701 7.78783C16.3782 7.84038 15.9837 7.9366 16.0241 8.4322C16.3756 8.52876 16.784 8.3356 17.0561 8.67018C16.9222 9.11946 16.9222 9.11946 17.034 9.51306C16.5057 10.2446 16.4289 11.3163 16.8687 11.7462C17.1439 11.7181 16.9168 11.2437 17.2799 11.277C17.286 12.2419 17.3955 12.49 18.0649 12.8659C17.8524 12.3384 18.5098 12.3559 18.5028 11.9718C18.4404 11.8682 18.3598 11.853 18.283 11.8312C18.1803 11.8021 18.103 11.7455 18.0707 11.6387C18.2408 11.0987 18.4216 11.0424 19.126 11.3076C19.546 11.7912 19.5801 12.2997 19.3084 12.8768C19.1924 13.123 19.0204 13.3041 18.8637 13.5077C18.5761 13.8814 18.5718 14.1042 18.9109 14.391C19.0973 14.5486 19.2425 14.7401 19.4192 14.8993C19.7425 15.1905 20.0262 15.5528 20.4981 15.6258C20.7317 15.662 20.9515 15.6707 20.9479 15.3697C20.8532 15.1297 20.5186 15.2635 20.4883 15.0071C20.4953 14.7721 20.8724 14.8112 20.7964 14.4878C20.639 14.273 20.2116 14.2874 20.1194 13.878C20.2546 13.6086 20.4053 13.3082 20.5556 13.0081C20.6094 12.8249 20.4256 12.6651 20.5045 12.4796C20.6048 12.1582 20.9622 12.0375 21.1197 11.6949C20.8269 11.265 20.7019 10.7785 20.8966 10.2431C21.0183 10.1171 21.145 9.98788 21.3566 10.0286C21.5749 10.1515 21.6586 10.3377 21.6216 10.5763C21.18 11.3289 21.1978 11.3915 21.895 11.8836C22.2317 12.1213 22.4816 12.4682 22.8727 12.6446C22.9956 12.7001 23.0559 12.8529 23.0443 13.0264C22.8834 13.1768 22.6566 13.3182 22.7954 13.6489C22.9101 13.8321 23.1976 13.934 23.2388 14.2043C23.2342 14.4294 22.919 14.4122 22.9428 14.6694C23.0194 14.9688 23.3612 14.7861 23.5407 14.942C23.5512 15.1261 23.7334 15.2276 23.7819 15.4013C23.7091 15.4781 23.6398 15.5507 23.5713 15.6241C23.4909 15.7102 23.3739 15.7703 23.367 15.9093C23.7383 16.079 24.2153 15.9014 24.4771 15.4535C24.8052 14.8924 25.2206 14.4178 25.7383 14.0282C25.7833 13.9943 25.8062 13.9309 25.8506 13.8644C25.8328 13.7179 25.8136 13.5599 25.795 13.4067C26.2248 12.8179 26.5205 12.0362 26.301 11.4991ZM19.1241 5.19919C18.9088 5.20025 18.8407 5.03838 18.7732 4.8758C18.9354 4.93481 19.0507 5.04432 19.1241 5.19919ZM19.8534 6.19481C19.6932 6.35984 19.767 6.52553 19.8582 6.68759C20.1944 7.28487 20.302 7.92064 20.1905 8.64048C19.4696 8.71059 19.5377 9.41172 19.2638 9.89746C19.1761 9.56489 19.2695 9.15905 19.5203 8.80183C19.7537 8.46932 19.9328 8.11719 20.0208 7.69266C19.75 6.94884 19.6269 6.12965 19.1649 5.43429C19.1293 5.38059 19.1464 5.29181 19.1443 5.2158C19.8965 5.35699 20.4768 5.88896 21.2095 6.12626C21.0853 6.30955 20.9658 6.48731 20.7965 6.62198C20.2024 6.20634 20.2024 6.20634 19.8534 6.19481ZM20.7418 8.15461C20.7849 7.93162 20.8768 7.59491 21.1981 7.31883C21.4471 7.84298 20.8546 7.96197 20.7418 8.15461ZM21.9574 6.10362L21.9027 5.57781C22.0462 5.74131 22.0108 5.92162 21.9574 6.10362ZM23.0278 11.2606C22.7267 11.0351 22.7132 10.8197 22.816 10.4494C22.9584 10.7494 23.149 10.9064 23.0278 11.2606Z" fill="#00A86B"/>
<path d="M16.356 6.42405C16.3571 6.42035 16.3583 6.41653 16.3593 6.41283C16.3532 6.41144 16.3469 6.4095 16.3408 6.4082L16.356 6.42405Z" fill="#00A86B"/>
<path d="M11.8757 30.9221C11.9256 30.4565 11.9404 29.9968 11.629 29.6073C11.9282 28.8661 12.5585 28.5994 13.2319 28.4469C14.3016 28.2048 15.3596 28.2578 16.4371 28.5389C18.257 29.0135 19.6134 30.0956 20.7177 31.5537C20.9294 31.8333 21.1827 32.1179 21.1048 32.5718C20.794 33.0125 20.3481 33.2901 19.766 33.2858C19.0869 33.2808 18.4088 33.2887 17.7381 33.3703C16.6227 32.1166 15.296 31.3876 13.5891 31.4256C13.2636 31.6929 12.8384 31.7338 12.4378 31.8741C12.317 31.5081 12.0619 31.2228 11.8634 30.9032L11.8757 30.9221ZM19.0474 32.9926C18.3211 32.1715 17.5757 31.6416 16.6834 31.2618C16.2577 31.0807 15.8135 31.1536 15.4137 30.9813C14.9892 30.7984 14.5487 30.8151 14.1074 30.8288C13.8751 30.8359 13.6458 30.8808 13.5359 31.2175C14.2088 31.06 14.8416 31.2596 15.4459 31.2917C15.6517 31.3696 15.653 31.581 15.8467 31.6784C16.2983 31.5413 16.5459 32.0226 16.9401 32.1333C17.4259 31.8694 17.4259 31.8694 17.709 32.1705C17.6275 32.3899 17.2918 32.1692 17.2318 32.4728C17.3943 32.6474 17.5658 32.8316 17.7157 32.9926C18.1376 32.9926 18.5174 32.9926 19.0474 32.9926ZM12.6645 31.4098C12.9463 31.3013 12.9463 31.3013 13.0441 31.0773C12.8253 31.0699 12.7704 31.226 12.6645 31.4098Z" fill="#00A86B"/>
<path d="M17.3184 18.4387C18.0573 18.2494 21.3101 18.931 21.728 19.3725C21.3865 19.499 20.9943 19.2456 20.6865 19.5312C20.7342 19.8843 21.039 19.9801 21.283 20.047C21.8352 20.1981 22.3071 20.4621 22.7683 20.796C23.4155 21.2645 24.1929 21.5134 24.8606 21.9595C25.4175 22.3317 25.8929 22.7924 26.3692 23.2533C26.5051 23.3847 26.6722 23.5289 26.6044 23.8163C26.134 23.725 25.8134 23.3103 25.3553 23.2152C25.2162 23.4539 25.3842 23.5621 25.5177 23.6775C26.0642 24.1497 26.5477 24.6814 26.9962 25.2452C27.1194 25.4 27.2731 25.5399 27.3143 25.7468C27.3674 25.9691 27.1759 26.1193 27.1495 26.3088C27.3705 27.139 27.8749 27.83 28.2091 28.6C28.3137 28.8409 28.37 29.0513 28.2545 29.2853C28.0717 29.6553 28.1432 30.0452 28.2165 30.4088C28.3759 31.2 28.4102 31.9972 28.4368 32.7976C28.4381 32.8365 28.4228 32.876 28.4142 32.9203C28.3388 33.0808 28.1486 33.079 28.0058 33.1972C27.7738 33.6314 27.925 34.2402 27.4626 34.615C27.3042 34.733 27.0739 34.5872 26.9214 34.7596C26.7628 34.5652 26.8875 34.3849 26.9583 34.2424C27.6646 32.8189 27.561 31.2859 27.4126 29.8035C27.2939 28.6171 26.7952 27.483 26.2438 26.403C25.3661 24.6835 24.2737 23.1295 22.7405 21.9289C21.6517 21.0764 20.5056 20.308 19.2634 19.6867C18.7092 19.4095 18.1792 19.0824 17.6486 18.7609C17.5259 18.6865 17.3584 18.6209 17.3184 18.4387Z" fill="#00A86B"/>
<path d="M21.4722 11.9551C22.1307 12.6905 22.3797 13.4935 22.1799 14.4327C22.078 14.9117 22.1667 15.399 22.2308 15.8739C22.2935 16.3387 22.6332 16.6579 23.2298 16.9368C24.0179 16.7141 24.7524 16.237 25.5813 16.1863C25.9926 16.4885 25.9926 16.4885 25.9183 16.8368C25.6875 16.9222 25.6447 16.624 25.4091 16.6166C25.334 16.6248 25.2352 16.6849 25.1414 16.8341C25.1388 17.0693 25.5002 17.3885 25.0831 17.6271C24.7685 17.582 24.7937 17.1826 24.3768 17.0863C24.3036 17.074 24.1424 17.199 23.9585 17.2766C23.1589 17.614 22.4675 17.3513 22.0332 16.5928C21.803 16.1906 21.5151 15.8174 21.6772 15.3068C21.6972 15.2439 21.6495 15.1517 21.6162 15.081C21.4532 14.7345 21.4289 14.3889 21.6311 14.0497C21.4626 13.7541 21.2376 13.487 21.4367 13.1685C20.9225 12.6454 20.9303 12.4197 21.4722 11.9551Z" fill="#00A86B"/>
<path d="M4.98575 16.543C4.98477 16.5465 4.98425 16.5501 4.98328 16.5536C4.98782 16.5555 4.99224 16.5577 4.9968 16.5595L4.98575 16.543Z" fill="#00A86B"/>
<path d="M6.17358 20.036C5.99415 19.9435 5.8132 20.1255 5.56891 19.9681C5.4008 19.8567 5.20221 19.6719 5.21658 19.3151C5.42988 19.3147 5.69598 19.4889 5.87994 19.1311C5.5882 18.891 5.17906 18.7583 4.96911 18.2937C5.12187 17.7699 4.81877 17.1654 4.98324 16.5545C4.63339 16.4106 4.35088 16.0564 3.84975 16.2272C3.57085 16.7146 3.97133 17.2553 3.80742 17.6968C3.93632 18.0572 4.17168 18.2622 4.30656 18.5206C4.04247 18.9316 3.97496 19.1555 4.03475 19.4076C4.1732 19.9913 4.82553 20.5989 5.42338 20.6671C5.76004 20.7055 6.05012 20.5716 6.24664 20.2889C6.30713 20.2018 6.26237 20.0962 6.17358 20.036Z" fill="#00A86B"/>
<path d="M16.0988 13.5419C16.4666 13.5064 16.7775 13.1629 17.1942 13.3352C17.4561 13.6653 17.3948 14.0983 17.5303 14.4577C17.7664 14.5404 17.9832 14.3538 18.2493 14.4966C18.4031 14.9189 18.2885 15.4568 18.5839 15.8595C17.9511 17.3592 17.7416 17.5456 17.052 17.2054C17.2235 16.9352 17.5862 16.8357 17.6782 16.5077C17.7098 16.2847 17.4523 16.1762 17.4648 15.9545C17.4056 15.6558 17.7597 15.4335 17.6326 15.0421C17.3178 15.5046 17.1725 16.032 16.6611 16.3088C16.4653 16.3335 16.229 16.404 16.0056 16.1932C16.1911 15.883 16.6035 15.795 16.6619 15.3686C16.5291 15.0231 16.3156 14.6392 16.5164 14.1999C16.3768 13.9688 16.2434 13.748 16.1101 13.5273L16.0988 13.5419Z" fill="#00A86B"/>
<path d="M16.1101 13.5269C15.9967 13.9932 15.9141 14.4701 15.7602 14.9226C15.639 15.2788 15.5909 15.7373 15.0125 15.803C15.0072 15.2614 15.2644 14.7619 15.2101 14.2342C14.89 14.2066 14.8127 14.3875 14.7648 14.6262C14.7209 14.8445 14.5956 15.0297 14.4657 15.1435C14.405 15.4135 14.6136 15.5658 14.5917 15.7743C14.0259 15.7772 13.8271 15.3944 13.813 14.2316C14.1784 13.9852 14.0094 13.3725 14.452 13.1256C14.7905 13.2343 14.9217 13.555 15.2382 13.6879C15.3971 13.3183 15.3893 12.8855 15.7248 12.6152C16.2236 12.6435 16.3018 12.8321 16.0988 13.5415C16.0988 13.5415 16.1101 13.5269 16.1101 13.5269Z" fill="#00A86B"/>
<path d="M4.99639 16.5601C4.98286 16.1486 4.77664 15.8059 4.59253 15.4825C4.68469 15.1431 4.68469 15.1431 4.9427 14.9414C5.39197 14.9611 5.58211 15.3082 5.74027 15.6472C6.12439 16.4706 6.29361 17.3804 6.73676 18.1826C6.75001 18.2066 6.71798 18.2556 6.70182 18.3108C6.45059 18.4807 6.30973 18.2709 6.16097 18.1261C5.68448 17.6626 5.3775 17.0716 4.9857 16.5441L4.99639 16.5601Z" fill="#00A86B"/>
<path d="M7.14982 18.2916C7.34002 17.9535 7.53575 17.6559 7.29173 17.2292C6.88017 16.8241 6.3902 16.3664 6.12744 15.5762C6.58533 15.7474 6.93641 15.7313 7.29127 15.7433C7.58766 15.9628 7.7096 16.3295 7.99285 16.5234C8.08303 16.9532 7.99551 17.3526 7.97168 17.7449C7.94128 18.2452 7.61379 18.4526 7.14982 18.2916Z" fill="#00A86B"/>
<path d="M14.9899 41.3441C15.2067 41.1681 15.4049 41.2258 15.5894 41.2356C16.4266 42.3112 16.5013 42.6489 15.9591 43.1316C15.8857 42.3922 15.0347 42.1192 14.9899 41.3441Z" fill="#00A86B"/>
<path d="M23.2462 28.7642C22.8705 28.3328 22.4801 27.91 22.3953 27.3086L22.3823 27.3238C22.7775 27.5511 23.186 28.2496 23.2305 28.774L23.2462 28.7642Z" fill="#00A86B"/>
<path d="M21.6729 26.3468C21.2258 26.2293 20.9894 25.9012 20.8259 25.5L20.8142 25.5111C21.2742 25.6156 21.5915 25.8629 21.6617 26.3577L21.6729 26.3468Z" fill="#00A86B"/>
</g>
<g filter="url(#filter1_d_364_3)">
<path d="M44.4854 22.0732H48.6162V31.2578C48.5869 32.0547 48.4873 32.7461 48.3174 33.332C48.1533 33.9121 47.6699 34.5068 46.8672 35.1162C46.0645 35.7314 45.0127 36.1064 43.7119 36.2412L43.501 33.6045C44.3213 33.5342 44.9658 33.2002 45.4346 32.6025C45.9033 31.999 46.0967 29.5293 46.0146 25.1934L47.21 24.5781H43.8877L44.4854 22.0732Z" fill="#00A86B"/>
<path d="M54.3555 21.168L56.5176 21.9854L56.2627 22.8291H59.7432L59.3828 25.4307L57.4844 25.4395L60.499 33.5166L58.1699 34.3164L55.0762 26.0547L51.6221 34.2461L49.2578 33.5254L52.668 25.4043L50.1807 25.3955L50.374 22.8291H53.6611L54.3555 21.168ZM55.4717 30.1328L56.8164 31.6094L54.3291 34.1055L52.9756 32.6465L55.4717 30.1328Z" fill="#00A86B"/>
<path d="M61.4307 22.0557H69.1826L70.8701 22.0645V27.4082C70.9404 28.3047 70.8525 29.166 70.6064 29.9922C70.3662 30.8125 69.8975 31.6152 69.2002 32.4004C68.5088 33.1797 67.7441 33.6602 66.9062 33.8418C66.0742 34.0234 64.1553 34.0791 61.1494 34.0088L61.167 31.5127L62.8369 31.4951L61.8525 31.0029V24.666H61.0088L61.4307 22.0557ZM64.3926 24.666V31.5654C65.2832 31.6885 66.0508 31.5537 66.6953 31.1611C67.3398 30.7627 67.7705 30.2676 67.9873 29.6758C68.2041 29.0781 68.2715 27.4082 68.1895 24.666H64.3926Z" fill="#00A86B"/>
<path d="M71.8369 22.1172H80.5293V24.6221L75.5107 24.6309V26.0283L79.4834 26.0371L79.2021 28.4541H75.5107V31.5566L80.6787 30.959L81.417 33.6133L72.2588 34.7646L71.9775 32.1104L73.0146 31.9346V28.4717H71.9248L72.1709 26.2129L73.0322 26.2041L73.0234 25.1846L74.4385 24.666L71.8369 24.6748V22.1172Z" fill="#00A86B"/>
<path d="M87.376 22.0557H95.1279L96.8154 22.0645V27.4082C96.8857 28.3047 96.7979 29.166 96.5518 29.9922C96.3115 30.8125 95.8428 31.6152 95.1455 32.4004C94.4541 33.1797 93.6895 33.6602 92.8516 33.8418C92.0195 34.0234 90.1006 34.0791 87.0947 34.0088L87.1123 31.5127L88.7822 31.4951L87.7979 31.0029V24.666H86.9541L87.376 22.0557ZM90.3379 24.666V31.5654C91.2285 31.6885 91.9961 31.5537 92.6406 31.1611C93.2852 30.7627 93.7158 30.2676 93.9326 29.6758C94.1494 29.0781 94.2168 27.4082 94.1348 24.666H90.3379Z" fill="#00A86B"/>
<path d="M98.2217 22.0469H105.798C106.331 22.1113 106.697 22.4541 106.896 23.0752L106.879 26.6084C106.709 27.4229 106.463 27.9707 106.141 28.252C105.818 28.5273 105.244 28.8467 104.418 29.21L105.112 30.3174C105.628 31.126 106.357 31.5918 107.301 31.7148L107.099 34.4219L105.684 34.1582C104.764 33.9707 103.791 33.0098 102.766 31.2754L102.212 30.2207L100.832 30.8711L100.823 34.0088L98.3623 34.0264V31.6885L97.3955 29.623L98.3447 29.0254L98.3623 25.3252L99.5664 24.6572L97.668 24.666L98.2217 22.0469ZM100.832 24.666V28.0498L103.46 27.0127C104.099 26.7783 104.418 26.4004 104.418 25.8789V24.666H100.832Z" fill="#00A86B"/>
<path d="M112.75 21.168L114.912 21.9854L114.657 22.8291H118.138L117.777 25.4307L115.879 25.4395L118.894 33.5166L116.564 34.3164L113.471 26.0547L110.017 34.2461L107.652 33.5254L111.062 25.4043L108.575 25.3955L108.769 22.8291H112.056L112.75 21.168ZM113.866 30.1328L115.211 31.6094L112.724 34.1055L111.37 32.6465L113.866 30.1328Z" fill="#00A86B"/>
<path d="M120.282 22.1172H129.537L129.098 24.7539H122.778V30.335C122.714 31.1318 123.156 31.4746 124.105 31.3633H127.252L127.243 29.2979L125.134 29.3066V26.8105L129.836 26.8193V34L129.827 34.6855L127.278 35.1777V33.0859L126.303 34L122.532 34.0088C121.683 33.8857 121.073 33.5635 120.704 33.042C120.335 32.5146 120.147 31.7588 120.142 30.7744V25.5273L121.688 24.7539L119.386 24.7627L120.282 22.1172Z" fill="#00A86B"/>
<path d="M133.387 22.0205V23.1719L134.072 22.0205H139.873C140.588 22.2197 140.925 23.2275 140.884 25.0439V32.9629C140.743 33.6074 140.195 33.9443 139.24 33.9736H132.534C131.538 34.0146 130.961 33.5811 130.803 32.6729V22.5566L133.387 22.0205ZM133.387 24.6133V31.3809H138.291V24.6133H133.387Z" fill="#00A86B"/>
<path d="M141.807 22.0732H144.355L144.347 23.9717L144.646 23.2334C145.765 23.5322 146.591 23.8691 147.124 24.2441C147.663 24.6133 148.22 25.2197 148.794 26.0635L148.917 26.415L148.908 22.0908H151.439V31.9521C151.48 32.4033 151.284 32.8838 150.851 33.3936C150.423 33.8975 149.541 34.1143 148.205 34.0439V31.5566C148.791 31.5098 149.037 31.1318 148.943 30.4229C148.949 30.0244 148.861 29.5938 148.68 29.1309C148.504 28.6621 147.947 28.041 147.01 27.2676C146.078 26.4883 145.19 25.9814 144.347 25.7471V34.0439H141.789L141.807 22.0732Z" fill="#00A86B"/>
</g>
<defs>
<filter id="filter0_d_364_3" x="0" y="0" width="30.4369" height="58.002" filterUnits="userSpaceOnUse" color-interpolation-filters="sRGB">
<feFlood flood-opacity="0" result="BackgroundImageFix"/>
<feColorMatrix in="SourceAlpha" type="matrix" values="0 0 0 0 0 0 0 0 0 0 0 0 0 0 0 0 0 0 127 0" result="hardAlpha"/>
<feOffset dy="1"/>
<feGaussianBlur stdDeviation="1"/>
<feComposite in2="hardAlpha" operator="out"/>
<feColorMatrix type="matrix" values="0 0 0 0 0.256354 0 0 0 0 0.891667 0 0 0 0 0.396123 0 0 0 0.25 0"/>
<feBlend mode="normal" in2="BackgroundImageFix" result="effect1_dropShadow_364_3"/>
<feBlend mode="normal" in="SourceGraphic" in2="effect1_dropShadow_364_3" result="shape"/>
</filter>
<filter id="filter1_d_364_3" x="41.501" y="20.168" width="111.944" height="19.0742" filterUnits="userSpaceOnUse" color-interpolation-filters="sRGB">
<feFlood flood-opacity="0" result="BackgroundImageFix"/>
<feColorMatrix in="SourceAlpha" type="matrix" values="0 0 0 0 0 0 0 0 0 0 0 0 0 0 0 0 0 0 127 0" result="hardAlpha"/>
<feOffset dy="1"/>
<feGaussianBlur stdDeviation="1"/>
<feComposite in2="hardAlpha" operator="out"/>
<feColorMatrix type="matrix" values="0 0 0 0 0.254902 0 0 0 0 0.890196 0 0 0 0 0.396078 0 0 0 0.25 0"/>
<feBlend mode="normal" in2="BackgroundImageFix" result="effect1_dropShadow_364_3"/>
<feBlend mode="normal" in="SourceGraphic" in2="effect1_dropShadow_364_3" result="shape"/>
</filter>
</defs>
</svg>
