<svg width="18" height="9" viewBox="0 0 18 9" fill="none" xmlns="http://www.w3.org/2000/svg">
<path d="M10.5503 3.21847C10.4986 3.11286 10.6399 3.04151 10.5989 2.93772C9.54051 2.69466 8.98361 2.28101 8.91235 1.64915C9.17809 1.90919 9.4841 1.93522 9.85318 1.87327C9.90545 1.8542 9.78325 1.75762 9.85271 1.71902C9.93515 1.63474 10.0762 1.68965 10.1552 1.57031C10.08 1.37064 9.94462 1.17327 10.0206 0.856453C10.3268 1.42545 10.8206 1.19028 11.2568 1.22505C11.3668 1.1811 11.2643 1.0581 11.3467 0.97994C11.4477 0.97994 11.5641 0.97994 11.7045 0.97994C11.6449 0.736719 11.4508 0.554112 11.4968 0.239818C11.9163 0.746466 12.5565 0.368871 13.0131 0.719913C13.0621 0.650749 13.1003 0.5967 13.1461 0.532061C13.2687 0.556329 13.3552 0.688995 13.5202 0.65829C13.4847 0.463756 13.3972 0.274828 13.4881 0C13.7891 0.477879 14.3258 0.435348 14.7329 0.685029C14.8174 0.682474 14.8058 0.553487 14.9196 0.537473C15.0165 0.533748 15.0222 0.718812 15.1777 0.699366C15.2343 0.474482 15.184 0.273215 14.9971 0.0858638C15.4797 0.1621 15.5715 0.261636 16.1481 1.29793C16.2205 1.38827 16.3011 1.26523 16.3856 1.32576C16.4759 1.40812 16.4325 1.59392 16.6028 1.66025C16.706 1.48521 16.8105 1.30612 16.965 1.16652C16.9839 1.14938 17.0184 1.14933 17.0908 1.12814C16.8626 2.04549 17.4025 2.80435 17.5252 3.64309C17.5494 3.80831 17.5659 3.97466 17.5877 4.15577C17.3631 4.29052 17.124 4.41432 16.9426 4.64067C16.7783 4.55595 16.6685 4.64628 16.5638 4.75362C16.2971 5.02698 15.9884 5.23491 15.6237 5.35553C15.5236 5.38866 15.4246 5.45555 15.3206 5.36337C15.3038 5.27395 15.363 5.21285 15.395 5.14247C15.6058 4.67844 15.4059 4.23423 14.9195 4.09067C14.6711 4.01734 14.4253 3.94507 14.2257 3.76324C14.1221 3.66881 13.9836 3.6714 13.8568 3.71087C13.7094 3.75674 13.5632 3.75245 13.4176 3.73953C12.7416 3.2168 12.2016 3.11902 10.5503 3.21847ZM14.2587 3.53943C14.4868 3.86197 14.8082 3.97477 15.1857 3.96101C14.892 3.78597 14.5489 3.72225 14.2587 3.53943ZM13.7994 3.54829C13.4377 3.64202 13.2588 3.23175 12.929 3.24235C13.2144 3.36107 13.3948 3.7457 13.7994 3.54829ZM15.6117 4.71664C15.7421 4.28262 15.6692 4.11636 15.3457 4.15537C15.4709 4.3316 15.5727 4.50674 15.6117 4.71664Z" fill="currentColor"/>
<path d="M9.14178 5.81898C8.88273 6.00731 8.61105 6.13301 8.30394 6.19157C8.45239 5.36175 8.45239 5.36175 8.20672 5.0823C7.70647 4.96546 7.20059 4.85842 6.77921 5.234C6.75464 5.5515 7.01606 5.69829 7.03391 5.96624C6.29755 6.03954 5.93839 5.66977 5.84387 4.99285C5.38202 5.02339 4.97221 4.95061 4.57557 4.76187C4.53391 4.99003 4.7515 5.06887 4.7627 5.23304C4.59348 5.29036 4.43595 5.24788 4.29858 5.24769C4.2287 5.31101 4.30961 5.39961 4.24052 5.44165C3.73489 5.45923 3.51802 4.84511 2.99599 4.88981C2.99266 5.04024 3.21362 5.12662 3.10026 5.29155C2.94138 5.30287 2.84933 5.18685 2.75198 5.11337C2.63524 5.10771 2.62786 5.2545 2.54492 5.24841C2.01498 5.08457 1.76822 4.73437 1.79802 4.20375C1.662 4.20112 1.66556 4.37488 1.54745 4.35489C1.47844 4.23715 1.42343 4.11952 1.34654 4.01854C1.26183 3.90727 1.29315 3.77036 1.24422 3.64958C1.18621 3.66144 1.13297 3.67233 1.08362 3.68242C0.713417 3.03846 0.698676 2.97746 0.775049 2.34473C0.493799 2.54274 0.35102 2.77659 0.342666 3.06605C0.329595 3.51935 0.188376 3.94312 0.0986336 4.37998C-0.0560792 5.13316 -0.0982021 5.88615 0.502548 6.50379C0.621925 6.62653 0.7154 6.76421 0.777425 6.92187C0.874137 7.16772 1.05106 7.29396 1.31248 7.33047C1.47748 7.35352 1.65902 7.38138 1.75982 7.53731C2.01947 7.93892 2.38302 7.94079 2.78235 7.82001C2.93152 7.77488 3.06902 7.76436 3.20563 7.86709C3.58658 8.15351 3.96759 8.14781 4.35303 7.86349C4.51639 7.74298 4.71267 7.65293 4.91113 7.74706C5.27738 7.92078 5.58039 7.81615 5.87808 7.59274C6.10314 7.42383 6.34536 7.3624 6.63415 7.44721C6.91303 7.52911 7.16238 7.43986 7.34892 7.20142C7.50253 7.00506 7.68432 6.87573 7.9587 6.90277C8.17708 6.9243 8.32036 6.75732 8.46493 6.62466C8.66881 6.43757 8.86151 6.23833 9.05923 6.04452C9.11134 5.99342 9.19291 5.95661 9.14178 5.81898ZM1.89337 7.34543C2.16684 7.78097 2.56868 7.5389 2.92174 7.57047C2.36933 7.9133 2.00527 7.83524 1.89337 7.34543ZM3.18578 7.65095C3.45754 7.52583 3.61739 7.81799 3.85505 7.76099C4.06293 7.71113 4.23507 7.53988 4.4767 7.57386C4.07002 8.04675 3.55631 8.08435 3.18578 7.65095ZM4.73967 7.49212C5.08574 7.41273 5.34426 7.72383 5.62591 7.55722C5.33094 7.83571 5.06817 7.69142 4.73967 7.49212ZM6.29074 7.20791C6.47458 6.89109 6.70858 7.14909 6.90514 7.12445C7.12917 7.09637 7.25393 6.90003 7.48125 6.81681C7.09241 7.40329 6.96409 7.44522 6.29074 7.20791Z" fill="currentColor"/>
<path d="M16.7796 5.04405C16.6706 5.08468 16.6947 4.96083 16.6299 4.9648C15.6361 5.78209 15.5201 5.85949 15.4469 5.75422C15.4363 5.65552 15.6156 5.66774 15.5645 5.53404C14.9429 5.44397 14.5458 6.05287 13.9811 6.0898C13.9022 6.00211 13.999 5.89978 13.8947 5.85C13.6197 5.90739 13.3408 5.97907 13.0098 5.89076C13.2883 5.68189 13.5214 5.50701 13.8004 5.29778C13.2699 5.16631 12.787 5.53716 12.3149 5.30577C12.2979 5.18752 12.4697 5.16657 12.4206 5.02436C11.9153 5.02525 11.4577 4.84653 10.9963 4.50214C11.0774 4.82402 11.3097 4.99495 11.3756 5.26658C10.8217 5.282 10.4856 4.78508 9.93754 4.71329C10.1278 5.04018 9.99057 5.34946 10.0379 5.66076C9.75822 5.59237 9.54403 5.44669 9.27136 5.27971C9.31018 5.46588 9.38121 5.5538 9.45357 5.64829C9.63414 5.8841 9.83505 6.11347 9.96551 6.37634C10.1503 6.74869 10.4394 6.91753 10.8286 6.96053C10.9857 6.9779 11.1103 7.04437 11.205 7.17168C11.3787 7.40526 11.608 7.55348 11.8995 7.58227C12.2778 7.61962 12.6345 7.69673 12.9478 7.9379C13.0692 8.03136 13.2389 8.06187 13.4029 8.04629C13.9199 7.99718 14.4348 7.9161 14.9531 8.06091C15.0931 8.10003 16.4421 7.51714 16.5286 7.40035C16.9077 6.88873 17.2636 6.35763 17.3603 5.71321C17.4411 5.17441 17.558 4.66097 18.0001 4.2002C17.4325 4.35522 17.0634 4.66074 16.7796 5.04405ZM9.99614 6.09207C10.2579 6.42619 10.5855 6.66728 10.9969 6.79206C10.4547 6.84376 10.1236 6.606 9.99614 6.09207ZM11.2855 6.91277C11.5699 7.30385 11.9715 7.4397 12.4323 7.44717C11.8051 7.55265 11.3383 7.33806 11.2855 6.91277ZM12.7408 7.57811C13.1131 7.9217 13.578 7.72111 13.9987 7.78069C13.4879 8.04154 12.9611 7.95178 12.7408 7.57811ZM14.4903 7.80964C14.8054 7.88989 15.1108 7.83249 15.4158 7.77093C15.1608 8.0025 14.8533 8.02291 14.4903 7.80964ZM15.7993 7.50871C15.9721 7.26039 16.2308 7.30382 16.5349 7.22901C16.2981 7.47779 16.0953 7.5824 15.7993 7.50871Z" fill="currentColor"/>
<path d="M3.57583 3.66432C3.38191 3.97268 3.12886 4.1311 2.81767 4.21242C2.48449 4.29949 2.43305 4.64543 2.22761 4.88854C2.08777 4.53808 1.93471 4.21192 2.00655 3.83025C1.80674 3.84567 1.70995 3.99968 1.52319 4.04996C1.53041 3.66459 1.50022 3.29759 1.40171 2.93991C1.24338 2.91314 1.20064 3.11254 1.02979 3.08564C0.93433 2.77102 1.05264 2.48606 1.22214 2.23441C1.49569 1.82829 1.9 1.51135 2.02159 0.935844C2.18023 1.20823 2.07638 1.43282 2.13626 1.65236C2.32614 1.61734 2.33544 1.41675 2.45366 1.32779C2.59916 1.367 2.47704 1.53532 2.61136 1.61417C2.90746 1.0958 3.60342 1.01684 3.86415 0.391602C4.01965 0.687566 3.9263 0.934413 3.90543 1.20226C4.02084 1.15078 4.12339 1.10504 4.21163 1.06568C4.33793 1.08999 4.27234 1.21489 4.34326 1.25818C4.90237 1.18849 5.47882 1.15772 5.80837 0.520459C5.91622 0.833188 5.79992 1.05778 5.73742 1.31776C5.97758 1.251 6.19006 1.19193 6.44365 1.12144C6.41193 1.34218 6.22454 1.49848 6.30712 1.70143C6.39341 1.91351 6.5664 1.97242 6.79113 1.93675C6.79244 2.11696 6.6513 2.27671 6.78973 2.44996C6.8611 2.46127 6.94535 2.47463 7.0161 2.48585C7.08461 2.58262 6.9806 2.64933 7.02534 2.77675C7.58885 2.86038 7.50328 3.36263 7.58467 3.77611C7.3446 3.90922 7.15024 3.74328 6.9444 3.67049C6.75446 3.6759 6.65294 3.82672 6.52139 3.92372C6.39154 3.87467 6.46523 3.70974 6.41261 3.68468C6.25159 3.59909 6.17215 3.71534 6.05528 3.69481C6.00108 3.66631 5.93175 3.62986 5.84166 3.58248C5.58054 3.75326 5.31984 3.67399 5.06269 3.54281C4.94074 3.4806 4.77794 3.44787 4.68989 3.5204C4.35068 3.79985 3.98178 3.78633 3.57583 3.66432ZM3.23953 3.42485C3.08997 3.87441 2.69493 4.01182 2.41644 4.28053C2.55178 4.21574 2.6676 4.13146 2.80659 4.08797C2.95574 4.04131 3.11463 4.0157 3.22999 3.8945C3.33 3.78943 3.45726 3.69117 3.23953 3.42485ZM3.6472 3.45701C4.07888 3.74494 4.29398 3.71014 4.68909 3.27194C4.29969 3.37015 4.00612 3.65081 3.6472 3.45701ZM5.73887 3.45829C5.47774 3.52019 5.24474 3.3988 5.00204 3.34066C5.23322 3.47383 5.45316 3.68025 5.73887 3.45829Z" fill="currentColor"/>
<path d="M8.10436 3.77559C7.99394 3.60874 7.98324 3.42116 7.99493 3.23043C8.00911 2.99906 7.94099 2.80029 7.77621 2.63883C7.61107 2.55718 7.47026 2.66739 7.31409 2.70559C7.18103 2.48362 7.35979 2.32767 7.40649 2.146C7.26219 2.07488 7.14533 2.20364 7.00008 2.19856C6.87179 2.02728 7.02844 1.86522 7.02895 1.68243C6.85487 1.64211 6.73604 1.77649 6.55388 1.8322C6.51445 1.3984 6.79525 1.21507 7.09089 1.05881C7.11858 0.943945 7.0447 0.875364 7.01361 0.795615C6.91461 0.541681 6.96257 0.318977 7.17171 0.154885C7.38981 -0.0162388 7.63715 -0.00284046 7.86843 0.136781C7.96809 0.19695 8.0691 0.277005 8.13152 0.372777C8.35092 0.70943 8.60693 0.982472 9.04573 1.01165C8.77685 1.14641 8.58412 1.00244 8.38644 0.858867C8.18177 0.710214 8.11368 0.448597 7.89901 0.30368C7.68787 0.161154 7.51907 0.22751 7.36867 0.374909C7.26523 0.476278 7.25392 0.656152 7.36824 0.721493C7.64718 0.880925 7.74413 1.11042 7.7087 1.43008C7.82639 1.40504 7.90776 1.38772 7.98823 1.3706C8.08445 1.72939 8.14568 2.08812 8.49328 2.2893C8.58974 2.34513 8.68609 2.40396 8.80018 2.35676C9.01934 2.26611 9.18708 2.37084 9.28749 2.5342C9.52556 2.92155 9.85009 3.10381 10.2893 3.03228C10.3607 3.1555 10.242 3.21345 10.2424 3.29987C10.2561 3.31331 10.2667 3.33185 10.2819 3.33721C10.6357 3.46203 10.9894 3.32983 11.3431 3.33638C12.0466 3.3494 12.7626 3.32359 13.3425 3.83311C13.4115 3.89371 13.529 3.92741 13.5007 4.07778C12.431 3.60453 11.3701 3.80713 10.2488 4.10446C10.598 4.30437 10.8621 4.51143 10.972 4.90982C10.5114 4.62796 10.058 4.43823 9.51355 4.47324C9.58794 4.7631 9.86079 4.99198 9.7042 5.32957C9.45112 5.18252 9.33796 4.84183 8.97381 4.82627C9.02443 5.18011 9.07066 5.53547 8.71903 5.79253C8.59574 4.94033 8.41032 4.85854 7.41098 4.83926C7.0838 4.83295 6.73765 4.89662 6.44795 5.12686C6.36011 5.45226 6.56719 5.61446 6.79655 5.78543C6.55249 5.82298 6.32525 5.78435 6.19536 5.54564C6.00813 5.20154 5.90732 4.81578 5.61562 4.52108C5.5094 4.41376 5.52264 4.20264 5.65137 4.04841C5.81835 4.06579 5.82019 4.29637 6.00686 4.30745C6.12607 4.18125 6.11803 3.9556 6.31581 3.8444C6.40333 3.95655 6.38147 4.13352 6.5357 4.22884C6.64231 4.10564 6.657 3.89606 6.85853 3.83552C6.91895 3.91813 6.98195 4.00425 7.0525 4.1007C7.39727 4.17388 7.63561 4.00613 7.81761 3.75879C7.93044 3.71158 8.00681 3.88256 8.10477 3.77466C8.10609 3.8191 8.10832 3.86221 8.11032 3.90471C8.11466 3.9014 8.11924 3.89869 8.12381 3.89598C8.11693 3.89686 8.11004 3.89775 8.10316 3.89864C8.10356 3.85762 8.10396 3.81661 8.10436 3.77559ZM9.42345 3.36884C9.30335 3.09773 9.05634 3.05536 8.80318 2.92885C8.89956 3.29374 9.04418 3.38686 9.42345 3.36884Z" fill="currentColor"/>
</svg>
