<svg width="15" height="15" viewBox="0 0 15 15" fill="none" xmlns="http://www.w3.org/2000/svg">
<path d="M10.0347 0C10.2745 0.399432 10.1082 0.875268 9.99017 1.2863C10.0903 1.2834 10.1904 1.27905 10.2905 1.27954C10.1667 1.48554 9.94084 1.61465 9.848 1.84C9.78175 2.09532 9.76289 2.36854 9.64828 2.60839C9.47468 2.77039 9.21693 2.80666 9.053 2.98171C8.93501 3.10503 8.80251 3.21963 8.71547 3.36857C8.6497 3.47931 8.7822 3.57457 8.77495 3.68628C8.77688 3.79218 8.74303 3.93677 8.6202 3.95805C8.52978 3.98851 8.4466 3.92855 8.36536 3.89808C8.37793 4.01317 8.36053 4.12633 8.32184 4.23465C8.22706 4.25351 8.1318 4.27092 8.03653 4.28784C8.02251 4.3744 8.00171 4.46145 8.00413 4.54994C8.0346 4.65246 8.10617 4.73612 8.15549 4.83041C7.93015 4.77674 7.72269 4.61619 7.64532 4.39423C7.62695 4.26415 7.6666 4.13552 7.67482 4.00641C7.57714 4.02623 7.48091 4.05235 7.38854 4.08958C7.41756 4.21821 7.56118 4.32798 7.49542 4.4658C7.42771 4.54801 7.31649 4.55671 7.22171 4.58718C7.16852 4.76271 7.19221 4.9426 7.27829 5.10267C7.08631 5.04174 7.00072 4.84444 6.93254 4.6718C6.88079 4.45468 6.94462 4.23417 6.98283 4.02043C6.91561 4.09393 6.8658 4.18629 6.78214 4.24287C6.68253 4.24771 6.58291 4.21483 6.48378 4.2332C6.37111 4.41212 6.44896 4.62054 6.51425 4.80043C6.31453 4.67567 6.15108 4.46241 6.18541 4.21434C6.16849 4.033 6.30824 3.90195 6.43736 3.79992C6.54616 3.71819 6.60516 3.5857 6.71831 3.51074C6.84162 3.53686 6.95962 3.59005 7.0868 3.59537C7.22026 3.54072 7.26765 3.34343 7.42723 3.34971C7.52395 3.38211 7.59455 3.46238 7.67627 3.51993C7.83779 3.35551 8.07667 3.30135 8.23045 3.12727C8.3262 3.01798 8.44999 2.91014 8.48577 2.76604C8.44177 2.57454 8.40308 2.38208 8.40502 2.1843C8.37552 2.19397 8.31701 2.21331 8.28751 2.22299C8.27058 2.40288 8.32571 2.57986 8.31411 2.75879C8.20579 2.8937 8.07135 3.00734 7.9403 3.11953C7.81119 3.15435 7.67289 3.17272 7.54087 3.14419C7.06407 3.03104 6.57034 3.22205 6.18542 3.4972C5.93009 3.65049 5.6206 3.55136 5.3527 3.49043C5.38655 3.36615 5.43008 3.24478 5.46151 3.12001C5.02919 3.22543 4.58672 3.3294 4.19454 3.54749C4.21147 3.19158 4.51129 2.95947 4.69359 2.68286C4.77241 2.52377 4.8348 2.355 4.87155 2.18092C4.34735 2.32986 3.88167 2.69931 3.6689 3.20754C3.59733 3.40049 3.48804 3.58328 3.47257 3.79266C3.71726 3.37534 3.89038 2.87097 4.31737 2.59776C4.42086 2.53392 4.5403 2.44591 4.66796 2.49911C4.34977 2.82262 4.04996 3.18481 3.91601 3.62632C3.99193 3.62245 4.06785 3.61858 4.14425 3.61471C4.15054 3.66017 4.16311 3.75059 4.16891 3.79605C4.31592 3.68676 4.45277 3.55426 4.63121 3.49865C4.85414 3.42612 5.07755 3.3531 5.30821 3.30861C5.28548 3.4648 5.08819 3.46577 4.99244 3.56442C4.76419 3.77767 4.48904 3.93532 4.27869 4.1684C4.30722 4.2037 4.33623 4.23852 4.36573 4.27285C4.33671 4.32218 4.30963 4.37247 4.284 4.42373C4.61719 4.46338 5.06159 4.43582 5.25357 4.76852C5.11285 4.75788 4.97164 4.71871 4.83093 4.75111C4.57657 4.79705 4.31737 4.82945 4.07703 4.92858C4.10218 5.0045 4.12733 5.07994 4.15102 5.15683C3.98999 5.15392 3.82896 5.15441 3.66793 5.15344C3.53156 5.39958 3.64569 5.66893 3.75981 5.89669C3.70226 5.917 3.64472 5.93876 3.58766 5.96101C3.67664 6.06449 3.81687 6.06981 3.93728 6.11285C3.93486 6.16701 3.93245 6.22165 3.93051 6.2763C3.80575 6.35802 3.68244 6.44652 3.60023 6.57418C3.48853 6.75455 3.25448 6.76325 3.0654 6.77486C3.1771 6.67089 3.32169 6.58965 3.34781 6.42427C3.19403 6.42766 3.03687 6.43926 2.88938 6.38752C3.01269 6.34448 3.14616 6.3087 3.22449 6.19506C3.15196 6.16749 3.07846 6.14186 3.00495 6.1172C3.04074 6.06643 3.07604 6.01517 3.11086 5.96391C3.00495 5.82706 2.99722 5.65781 3.01366 5.49242C2.93193 5.45519 2.85021 5.41844 2.76994 5.37878C2.91114 5.29948 3.09055 5.22646 3.08571 5.03303C2.88454 5.11766 2.68048 5.20035 2.49914 5.32317C2.44014 5.29077 2.38114 5.25789 2.32118 5.22694C2.26122 5.27675 2.19884 5.32269 2.13404 5.36573C2.15 5.46631 2.1674 5.56689 2.18433 5.66699C2.10986 5.67425 2.0349 5.6815 1.96043 5.68924C2.01363 5.77773 2.07117 5.86381 2.12195 5.95327C2.00299 5.97164 1.88258 5.98035 1.76217 5.9818C1.79457 6.11333 1.88355 6.21633 1.9585 6.32514C1.77619 6.2763 1.62435 6.16459 1.48992 6.03596C1.45993 6.11768 1.43092 6.20038 1.39465 6.27968C1.32308 6.13606 1.28246 5.98035 1.24571 5.82512C1.06195 5.89427 0.867557 5.98373 0.666874 5.95375C0.529539 5.94021 0.469093 5.78402 0.454102 5.66554C0.492787 5.43294 0.604976 5.22211 0.676545 4.99918C0.725386 4.84492 0.786317 4.69501 0.869492 4.55574C0.958953 4.55961 1.05228 4.59878 1.13981 4.5659C1.32889 4.43678 1.35838 4.19355 1.48411 4.01656C1.56826 3.87729 1.69737 3.77429 1.8347 3.69015C1.70269 3.8681 1.52618 4.01898 1.44785 4.23223C1.39465 4.37489 1.33711 4.52383 1.21138 4.61957C1.12288 4.71532 0.984582 4.66358 0.872393 4.66309C0.767941 4.88119 0.727804 5.12249 0.630606 5.34397C0.5837 5.49774 0.477314 5.6786 0.597724 5.82657C0.795021 5.91362 1.01166 5.81497 1.19929 5.74582C1.13014 5.60896 0.951699 5.5108 0.990869 5.33816C1.01988 5.1752 1.04938 4.98032 1.20993 4.89376C1.18091 5.05817 1.07404 5.3135 1.29649 5.38072C1.33614 5.30286 1.37579 5.22452 1.41593 5.14667C1.4991 5.15924 1.58228 5.17326 1.66545 5.18439C1.65627 5.08864 1.62435 4.99773 1.5905 4.90827C1.73896 4.89037 1.88741 4.86184 2.01556 4.78109C1.95898 4.67808 1.89805 4.57653 1.86033 4.46483C2.1176 4.2772 2.51026 4.14906 2.54846 3.78347C2.57409 3.52283 2.61374 3.26412 2.66016 3.00637C2.63115 2.39658 2.81249 1.79744 3.0741 1.25245C3.10022 1.18523 3.15486 1.14026 3.21772 1.10883C3.21047 1.20941 3.19838 1.31048 3.16356 1.40623C3.04509 1.75053 3.01221 2.11611 2.96433 2.47444C3.0064 2.72155 2.99045 2.97784 3.06733 3.21818C3.1007 3.35841 2.99093 3.50542 3.07169 3.63937C3.25448 3.32746 3.41938 2.98461 3.43001 2.61661C3.49578 2.65481 3.55961 2.69543 3.62441 2.73557C3.82026 2.43962 3.92761 2.09725 3.99386 1.75101C4.04125 1.8661 4.08477 1.98313 4.12733 2.10015C4.36669 1.89464 4.58043 1.65237 4.72937 1.37334C4.75839 1.32402 4.79321 1.28001 4.83479 1.24084C4.8198 1.41493 4.78305 1.58757 4.79176 1.76359C4.92135 1.69734 5.02532 1.59434 5.13219 1.49762C5.1438 1.58708 5.1554 1.67703 5.19264 1.7602C5.43926 1.53002 5.6264 1.23988 5.90252 1.04113C6.08145 0.910563 6.26665 0.787252 6.4625 0.683285C6.29422 0.911047 6.10998 1.13929 6.0297 1.41638C6.1211 1.37866 6.20814 1.33176 6.29277 1.28146C6.31404 1.34385 6.33435 1.40671 6.35466 1.47006C6.58001 1.35835 6.73234 1.14945 6.93737 1.00873C7.12741 0.87623 7.31794 0.74083 7.5312 0.647984C7.42675 0.846733 7.30295 1.03678 7.23767 1.25342C7.31843 1.22585 7.3987 1.19539 7.48042 1.16976C7.48236 1.43137 7.25024 1.60884 7.20769 1.86175C7.0602 1.8985 6.88756 1.89367 6.77296 2.00779C6.68204 2.08033 6.62305 2.18333 6.59258 2.29455C6.81648 2.1548 7.06261 2.0634 7.30537 1.96524C7.40885 1.81581 7.44561 1.63012 7.55779 1.48602C7.85471 1.14461 8.26768 0.86124 8.74013 0.888319C9.07573 0.926522 9.36974 0.738895 9.65409 0.590438C9.7271 0.731158 9.72904 0.887836 9.72614 1.04258C9.77304 1.00631 9.82624 0.972945 9.84461 0.912982C9.97469 0.627195 10.0313 0.312872 10.0347 0ZM2.44739 4.61812C2.62728 4.5925 2.74286 4.43195 2.79847 4.2714C2.67322 4.37779 2.54894 4.48804 2.44739 4.61812Z" fill="currentColor"/>
<path d="M9.96741 1.76499C10.4689 1.55125 10.9906 1.33751 11.5453 1.34186C11.7421 1.34525 11.9592 1.33751 12.129 1.45163C11.7489 1.50338 11.362 1.59912 11.0559 1.84381C11.1212 1.89555 11.1889 1.94439 11.2571 1.99324C11.2237 2.04981 11.1889 2.10543 11.156 2.162C11.4679 2.21713 11.8006 2.17748 12.0951 2.31336C12.2344 2.37187 12.4012 2.41636 12.4714 2.56482C12.2678 2.58755 12.0584 2.58997 11.8679 2.67362C11.9283 2.75777 12.0158 2.81386 12.1029 2.86754C12.0816 2.93234 12.0608 2.99762 12.0405 3.0629C12.2431 3.11174 12.4612 3.13882 12.6295 3.27374C12.7794 3.39366 12.9578 3.4928 13.055 3.66495C12.9424 3.68381 12.8292 3.69686 12.7175 3.71863C12.8016 3.79406 12.8896 3.86515 12.9757 3.93865C12.9544 3.99329 12.9336 4.04842 12.9129 4.10307C13.3065 4.25201 13.5681 4.59438 13.8258 4.90918C13.6977 4.96915 13.5546 4.95609 13.4182 4.96721C13.4545 5.0823 13.5231 5.18192 13.6058 5.26896C13.5865 5.31539 13.5468 5.35697 13.5483 5.41017C13.6372 5.65389 13.8669 5.80621 13.9917 6.02817C14.0807 6.20806 14.144 6.39956 14.2079 6.5896C14.0647 6.57896 13.9226 6.55575 13.7789 6.56107C13.8529 6.725 13.9583 6.87104 14.0459 7.02723C13.9883 7.07511 13.9288 7.1196 13.8703 7.16602C14.0792 7.63654 14.3191 8.12688 14.2852 8.65591C14.1324 8.61722 13.9869 8.51132 13.8244 8.55968C13.8529 8.75746 13.9037 8.95137 13.9424 9.1477C13.8776 9.19606 13.8128 9.24442 13.7485 9.29326C13.7697 9.8866 13.9167 10.5264 13.6421 11.0854C13.5197 10.9974 13.3795 10.7667 13.2175 10.9137C13.1401 11.0501 13.1754 11.2145 13.1633 11.3644C13.1019 11.3378 13.0405 11.3102 12.9796 11.2841C12.8674 11.5264 12.894 11.8016 12.8079 12.0516C12.7315 12.3364 12.5835 12.599 12.4075 12.834C12.3756 12.6899 12.3669 12.538 12.3011 12.4046C12.2484 12.3785 12.2054 12.3891 12.1725 12.4365C12.099 12.5579 12.0656 12.6976 12.0158 12.8296C11.967 12.7909 11.9196 12.7508 11.8717 12.7116C11.7445 12.8683 11.6773 13.0603 11.5782 13.2339C11.4244 13.5516 11.2039 13.8306 10.9781 14.099C10.9263 14.1628 10.8523 14.2015 10.7817 14.2402C10.7634 14.0265 10.8751 13.8108 10.8088 13.6029C10.6652 13.584 10.6434 13.7837 10.525 13.8277C10.4558 13.8089 10.4002 13.76 10.3388 13.7262C10.1507 13.9331 9.92437 14.099 9.72417 14.2934C9.57862 14.4293 9.40501 14.5439 9.20385 14.5715C9.22077 14.4496 9.25124 14.3302 9.273 14.2093C9.15114 14.2687 9.0404 14.3466 8.93159 14.4274C8.89097 14.3814 8.85277 14.3335 8.80828 14.2915C8.64145 14.2828 8.48864 14.3664 8.3281 14.3988C8.16997 14.4472 8.00797 14.3979 7.85178 14.3679C7.84694 14.4617 7.83824 14.555 7.82663 14.6483C7.68639 14.5879 7.59645 14.4433 7.44171 14.4119C7.30969 14.3674 7.16945 14.3684 7.0326 14.3795C7.07032 14.4883 7.16027 14.5594 7.24828 14.6271C6.97941 14.7644 6.70232 14.5502 6.44458 14.4767C6.48375 14.7136 6.69845 14.8979 6.94169 14.8838C6.94169 14.908 6.94169 14.9559 6.94218 14.9801C6.57321 15.056 6.20811 14.8969 5.90684 14.6962C5.67086 14.5357 5.62202 14.1802 5.33671 14.086C5.35654 14.2001 5.38072 14.3142 5.4194 14.424C5.40441 14.4322 5.37443 14.4486 5.35944 14.4569C5.17858 14.2228 4.96243 13.9873 4.66309 13.9157C4.43968 13.8268 4.19935 13.8214 3.96723 13.7769C3.67322 13.6551 3.41547 13.4544 3.22108 13.2034C3.26266 13.3882 3.38646 13.5352 3.4764 13.6972C3.10067 13.6773 2.81923 13.3891 2.59582 13.1154C2.46719 12.9699 2.44929 12.7619 2.32163 12.6164C2.28923 12.7271 2.25973 12.8388 2.23217 12.9505C2.20461 12.9558 2.14996 12.9665 2.1224 12.9718C2.24571 12.686 2.21863 12.3407 2.01891 12.0965C1.84048 11.8127 1.45023 11.745 1.32789 11.4157C1.2921 11.5143 1.25438 11.612 1.22924 11.714C1.22924 11.8141 1.27083 11.9094 1.2834 12.0085C1.06289 11.7735 0.976814 11.4481 0.99132 11.1318C1.04064 10.9181 1.16105 10.7256 1.18813 10.5056C0.947798 10.5438 0.756787 10.7271 0.514033 10.7464C0.635893 10.611 0.809013 10.5269 0.906211 10.3692C1.02565 10.1753 1.0832 9.94898 1.12092 9.72654C1.13252 9.29664 0.946348 8.90108 0.76936 8.52051C0.645082 8.69943 0.604945 8.91365 0.557555 9.12111C0.466643 8.8769 0.456972 8.58772 0.583668 8.35416C0.76259 7.9407 1.12865 7.64669 1.51551 7.4373C1.67751 7.32366 1.87239 7.23082 1.96475 7.04561C1.8545 7.0577 1.74618 7.08043 1.63544 7.0901C1.74134 6.91795 1.93912 6.83574 2.0576 6.67423C2.32405 6.31977 2.2873 5.82797 2.55133 5.474C2.56777 5.48415 2.60114 5.50398 2.61758 5.51413C2.45316 5.87681 2.59582 6.27189 2.64321 6.64473C2.69737 6.85557 2.61613 7.0635 2.56245 7.26515C2.58808 7.2579 2.63885 7.24388 2.664 7.23662C2.70946 7.15055 2.75394 7.06447 2.79988 6.97888C2.93625 7.11476 2.8584 7.32947 2.82019 7.49243C2.69833 7.72455 2.44349 7.86914 2.35355 8.12253C2.28971 8.31161 2.30567 8.51954 2.36225 8.70862C2.41206 8.88996 2.59872 8.99199 2.64756 9.17478C2.51844 9.15544 2.39078 9.12401 2.26118 9.10998C2.30374 9.36241 2.59533 9.46783 2.81632 9.51715C3.04167 9.59936 3.28346 9.4393 3.50542 9.53988C3.70223 9.62161 3.90291 9.73573 4.00688 9.93061C4.02864 10.0839 4.0151 10.2401 4.0122 10.3944C3.87728 10.3305 3.7767 10.1903 3.61519 10.1942C3.4619 10.2004 3.25009 10.2033 3.19013 10.3769C3.07745 10.5273 3.22881 10.684 3.35599 10.7585C3.59198 10.8987 3.87728 10.8344 4.11907 10.7459C4.15824 10.9814 3.94305 11.0994 3.79653 11.2353C4.07797 11.243 4.3478 11.1299 4.62972 11.1231C4.82606 11.1599 4.975 11.3069 5.07364 11.4732C4.85265 11.4848 4.61957 11.4442 4.41163 11.5395C4.30621 11.5752 4.26414 11.6889 4.19693 11.7682C4.12777 11.877 3.99092 11.8988 3.88309 11.9519C3.99721 12.0259 4.12052 12.0912 4.25641 12.1139C4.33426 12.1338 4.43001 12.1168 4.48997 12.1826C4.33668 12.274 4.15969 12.2967 3.98754 12.3286C4.1447 12.4457 4.34393 12.479 4.53398 12.4984C4.79317 12.4737 5.03979 12.348 5.30431 12.3731C5.57463 12.3959 5.858 12.4326 6.0964 12.5714C6.11091 12.5922 6.13992 12.6343 6.15395 12.6551C6.0495 12.6488 5.94794 12.6193 5.84301 12.6173C5.65925 12.6812 5.49919 12.7953 5.3222 12.8746C5.60751 13.0284 5.93295 12.9254 6.23857 12.9244C6.20134 13.0027 6.16072 13.0792 6.12397 13.158C6.45473 13.1517 6.71779 12.9051 7.05001 12.9114C7.10562 12.8964 7.24586 12.9017 7.16752 12.9892C7.04082 13.0584 6.86238 13.1082 6.85174 13.2798C7.13463 13.2963 7.41994 13.3045 7.70186 13.2731C7.87257 13.2208 8.03505 13.1396 8.21445 13.1178C8.22026 13.1565 8.23186 13.2334 8.23718 13.2721C8.62259 13.1826 9.00171 13.026 9.29089 12.7484C9.36632 12.6555 9.50027 12.717 9.59505 12.6638C9.79912 12.5912 9.91615 12.3988 10.0187 12.2208C10.0685 12.1333 10.1845 12.1483 10.2692 12.1284C10.3876 11.9461 10.5274 11.7793 10.6517 11.6014C10.6676 11.6792 10.6845 11.7571 10.7029 11.8349C10.8185 11.6613 10.8316 11.4427 10.9452 11.2672C11.0588 11.0892 11.1028 10.8615 11.275 10.7266C11.288 10.8823 11.2745 11.0462 11.333 11.1937C11.3514 11.2029 11.3881 11.2213 11.4065 11.23C11.4336 10.9553 11.4215 10.6792 11.391 10.4055C11.3151 10.4272 11.2421 10.4693 11.1613 10.4698C11.0018 10.3736 10.9094 10.2082 10.8088 10.0583C10.8151 10.2633 10.9805 10.4364 10.9399 10.6458C10.8021 10.8818 10.5201 10.9877 10.3838 11.2261C10.288 11.3862 10.2102 11.5627 10.069 11.6903C9.94951 11.7866 9.78993 11.789 9.64486 11.8049C9.75657 11.6009 9.81024 11.3731 9.78945 11.1405C9.70434 11.1908 9.62165 11.2716 9.5143 11.2508C9.37164 11.2416 9.31216 11.0728 9.33296 10.95C9.46304 10.4161 9.47126 9.85662 9.37454 9.31598C9.24833 9.29954 9.12357 9.27198 9.00703 9.22072C9.01718 9.08725 9.06264 8.95185 9.02395 8.81936C8.98479 8.65155 8.90161 8.46296 9.00945 8.30193C9.10858 8.27582 9.21352 8.31064 9.31216 8.28259C9.48287 8.18491 9.53944 7.96053 9.47513 7.78161C9.38325 7.65684 9.20723 7.64911 9.06893 7.61429C9.10616 7.41796 9.30104 7.35606 9.47029 7.31544C9.36874 7.23178 9.24205 7.21873 9.11632 7.2313C9.17144 7.15876 9.22028 7.06398 9.32038 7.04948C9.46449 7.0253 9.61053 7.06012 9.75463 7.07124C9.67339 6.92858 9.48577 6.93729 9.38954 6.81639C9.58683 6.81833 9.81411 6.75595 9.98481 6.88554C10.1807 7.03642 10.3078 7.2666 10.3354 7.51226C10.2779 7.54611 10.2193 7.57947 10.1618 7.61381C10.1976 7.71971 10.2595 7.81256 10.3132 7.90975C10.3378 8.06498 10.2556 8.20812 10.1918 8.34352C10.1231 8.28694 10.0554 8.22939 9.98481 8.17572C9.96015 8.24003 9.94129 8.30628 9.92872 8.37398C9.95483 8.49149 10.0844 8.57225 10.0772 8.69894C10.0254 8.83821 9.90019 8.94605 9.88568 9.09934C9.86924 9.3479 9.90599 9.61048 10.0385 9.82567C10.1192 9.91851 10.2779 9.90304 10.3552 9.99734C10.3451 10.1342 10.3054 10.2672 10.3001 10.405C10.5356 10.0873 10.5757 9.66947 10.5018 9.29084C10.4616 9.1564 10.538 9.03841 10.5985 8.92574C10.6889 8.79179 10.598 8.62447 10.6604 8.48182C10.716 8.33626 10.7817 8.16218 10.9312 8.09206C11.0482 8.03838 11.1275 8.16556 11.2121 8.22262C11.5695 8.50261 11.8954 8.87738 11.9612 9.34161C12.0182 9.55197 12.056 9.7657 12.0922 9.97993C12.2368 9.70574 12.1179 9.38513 12.07 9.09982C12.0192 8.84692 12.2146 8.62979 12.1928 8.37785C12.1947 8.09157 11.9733 7.88316 11.8785 7.62831C11.9505 7.62541 12.0226 7.62203 12.0946 7.61864C12.0182 7.47163 11.9414 7.32463 11.8746 7.1723C11.9563 7.17327 12.0381 7.17569 12.1198 7.17714C11.9433 6.92181 11.7547 6.65391 11.7165 6.33669C11.6909 6.092 11.6309 5.83958 11.4723 5.6447C11.3282 5.44933 11.0695 5.34295 11.0037 5.09294C11.1522 5.09052 11.3881 5.20126 11.467 5.02427C11.229 5.0175 10.9834 4.92659 10.8427 4.72591C10.8272 4.6524 10.8412 4.57697 10.8432 4.50298C10.6971 4.45752 10.5361 4.42706 10.4186 4.32164C10.3726 4.23943 10.4191 4.14368 10.4263 4.05713C10.2469 4.05132 10.0622 4.05519 9.89149 3.99184C9.68597 3.89174 9.52059 3.72684 9.31217 3.63206C9.20868 3.5779 9.09117 3.54405 9.00413 3.46233C8.98237 3.39656 8.9814 3.31242 9.0404 3.26503C9.20868 3.10352 9.45724 3.04452 9.59941 2.85206C9.68693 2.72295 9.75463 2.58029 9.80879 2.43425C9.88423 2.2181 9.82089 1.95455 9.96741 1.76499Z" fill="currentColor"/>
<path d="M0.729712 6.37415C1.00051 6.45007 1.27905 6.39543 1.53148 6.28711C1.4425 6.51487 1.32015 6.74312 1.11754 6.88964C0.917339 7.01634 0.668782 7.03375 0.472451 7.16866C0.311905 7.24362 0.231148 7.40465 0.123311 7.53521C0.128147 7.18897 0.31529 6.87126 0.572551 6.64979C0.374769 6.76633 0.172152 6.87852 0 7.03278C0.101067 6.86063 0.138302 6.6435 0.305135 6.51729C0.426995 6.42831 0.568681 6.30887 0.729712 6.37415Z" fill="currentColor"/>
</svg>
